<?xml version="1.0" encoding="UTF-8" standalone="no"?>
<!DOCTYPE svg PUBLIC "-//W3C//DTD SVG 1.1//EN"
 "http://www.w3.org/Graphics/SVG/1.1/DTD/svg11.dtd">
<!-- Generated by graphviz version 2.38.0 (20140413.2041)
 -->
<!-- Title: snakemake_dag Pages: 1 -->
<svg width="348pt" height="620pt"
 viewBox="0.00 0.00 348.18 620.00" xmlns="http://www.w3.org/2000/svg" xmlns:xlink="http://www.w3.org/1999/xlink">
<g id="graph0" class="graph" transform="scale(1 1) rotate(0) translate(4 616)">
<title>snakemake_dag</title>
<polygon fill="white" stroke="none" points="-4,4 -4,-616 344.185,-616 344.185,4 -4,4"/>
<!-- 0 -->
<g id="node1" class="node"><title>0</title>
<path fill="none" stroke="#80d856" stroke-width="2" d="M132.185,-36C132.185,-36 102.185,-36 102.185,-36 96.1846,-36 90.1846,-30 90.1846,-24 90.1846,-24 90.1846,-12 90.1846,-12 90.1846,-6 96.1846,-0 102.185,-0 102.185,-0 132.185,-0 132.185,-0 138.185,-0 144.185,-6 144.185,-12 144.185,-12 144.185,-24 144.185,-24 144.185,-30 138.185,-36 132.185,-36"/>
<text text-anchor="middle" x="117.185" y="-15" font-family="sans" font-size="10.00">all</text>
</g>
<!-- 1 -->
<g id="node2" class="node"><title>1</title>
<path fill="none" stroke="#56d882" stroke-width="2" d="M42.555,-108C42.555,-108 11.8142,-108 11.8142,-108 5.81417,-108 -0.185832,-102 -0.185832,-96 -0.185832,-96 -0.185832,-84 -0.185832,-84 -0.185832,-78 5.81417,-72 11.8142,-72 11.8142,-72 42.555,-72 42.555,-72 48.555,-72 54.555,-78 54.555,-84 54.555,-84 54.555,-96 54.555,-96 54.555,-102 48.555,-108 42.555,-108"/>
<text text-anchor="middle" x="27.1846" y="-87" font-family="sans" font-size="10.00">qdnaseq</text>
</g>
<!-- 1&#45;&gt;0 -->
<g id="edge1" class="edge"><title>1&#45;&gt;0</title>
<path fill="none" stroke="grey" stroke-width="2" d="M49.4318,-71.6966C60.7665,-62.8807 74.7148,-52.0321 87.0034,-42.4742"/>
<polygon fill="grey" stroke="grey" stroke-width="2" points="89.4485,-45.0065 95.1933,-36.1043 85.1509,-39.481 89.4485,-45.0065"/>
</g>
<!-- 2 -->
<g id="node3" class="node"><title>2</title>
<path fill="none" stroke="#59d856" stroke-width="2" d="M105.168,-180C105.168,-180 43.2008,-180 43.2008,-180 37.2008,-180 31.2008,-174 31.2008,-168 31.2008,-168 31.2008,-156 31.2008,-156 31.2008,-150 37.2008,-144 43.2008,-144 43.2008,-144 105.168,-144 105.168,-144 111.168,-144 117.168,-150 117.168,-156 117.168,-156 117.168,-168 117.168,-168 117.168,-174 111.168,-180 105.168,-180"/>
<text text-anchor="middle" x="74.1846" y="-159" font-family="sans" font-size="10.00">samtools_index</text>
</g>
<!-- 2&#45;&gt;0 -->
<g id="edge3" class="edge"><title>2&#45;&gt;0</title>
<path fill="none" stroke="grey" stroke-width="2" d="M79.3714,-143.871C86.7322,-119.564 100.282,-74.8187 109.005,-46.0132"/>
<polygon fill="grey" stroke="grey" stroke-width="2" points="112.431,-46.7745 111.979,-36.1893 105.731,-44.7457 112.431,-46.7745"/>
</g>
<!-- 3 -->
<g id="node4" class="node"><title>3</title>
<path fill="none" stroke="#d6d856" stroke-width="2" d="M195.796,-252C195.796,-252 98.5736,-252 98.5736,-252 92.5736,-252 86.5736,-246 86.5736,-240 86.5736,-240 86.5736,-228 86.5736,-228 86.5736,-222 92.5736,-216 98.5736,-216 98.5736,-216 195.796,-216 195.796,-216 201.796,-216 207.796,-222 207.796,-228 207.796,-228 207.796,-240 207.796,-240 207.796,-246 201.796,-252 195.796,-252"/>
<text text-anchor="middle" x="147.185" y="-231" font-family="sans" font-size="10.00">picard_mark_duplicates</text>
</g>
<!-- 3&#45;&gt;0 -->
<g id="edge2" class="edge"><title>3&#45;&gt;0</title>
<path fill="none" stroke="grey" stroke-width="2" d="M144.78,-215.849C139.591,-178.832 127.303,-91.1809 121.024,-46.3863"/>
<polygon fill="grey" stroke="grey" stroke-width="2" points="124.455,-45.6497 119.6,-36.2325 117.523,-46.6215 124.455,-45.6497"/>
</g>
<!-- 3&#45;&gt;1 -->
<g id="edge5" class="edge"><title>3&#45;&gt;1</title>
<path fill="none" stroke="grey" stroke-width="2" d="M86.536,-222.35C62.2782,-214.792 36.6951,-201.913 22.1846,-180 10.2173,-161.927 12.8418,-136.989 17.6734,-118.108"/>
<polygon fill="grey" stroke="grey" stroke-width="2" points="21.0871,-118.903 20.5061,-108.324 14.3632,-116.956 21.0871,-118.903"/>
</g>
<!-- 3&#45;&gt;2 -->
<g id="edge6" class="edge"><title>3&#45;&gt;2</title>
<path fill="none" stroke="grey" stroke-width="2" d="M129.14,-215.697C120.123,-207.05 109.067,-196.449 99.2413,-187.027"/>
<polygon fill="grey" stroke="grey" stroke-width="2" points="101.662,-184.499 92.0219,-180.104 96.8174,-189.552 101.662,-184.499"/>
</g>
<!-- 4 -->
<g id="node5" class="node"><title>4</title>
<path fill="none" stroke="#56a9d8" stroke-width="2" d="M241.185,-108C241.185,-108 211.185,-108 211.185,-108 205.185,-108 199.185,-102 199.185,-96 199.185,-96 199.185,-84 199.185,-84 199.185,-78 205.185,-72 211.185,-72 211.185,-72 241.185,-72 241.185,-72 247.185,-72 253.185,-78 253.185,-84 253.185,-84 253.185,-96 253.185,-96 253.185,-102 247.185,-108 241.185,-108"/>
<text text-anchor="middle" x="226.185" y="-87" font-family="sans" font-size="10.00">multiqc</text>
</g>
<!-- 3&#45;&gt;4 -->
<g id="edge9" class="edge"><title>3&#45;&gt;4</title>
<path fill="none" stroke="grey" stroke-width="2" d="M156.714,-215.871C170.356,-191.35 195.568,-146.032 211.576,-117.259"/>
<polygon fill="grey" stroke="grey" stroke-width="2" points="214.818,-118.63 216.622,-108.189 208.701,-115.226 214.818,-118.63"/>
</g>
<!-- 6 -->
<g id="node7" class="node"><title>6</title>
<path fill="none" stroke="#56d8a9" stroke-width="2" d="M281.379,-180C281.379,-180 222.99,-180 222.99,-180 216.99,-180 210.99,-174 210.99,-168 210.99,-168 210.99,-156 210.99,-156 210.99,-150 216.99,-144 222.99,-144 222.99,-144 281.379,-144 281.379,-144 287.379,-144 293.379,-150 293.379,-156 293.379,-156 293.379,-168 293.379,-168 293.379,-174 287.379,-180 281.379,-180"/>
<text text-anchor="middle" x="252.185" y="-159" font-family="sans" font-size="10.00">samtools_stats</text>
</g>
<!-- 3&#45;&gt;6 -->
<g id="edge12" class="edge"><title>3&#45;&gt;6</title>
<path fill="none" stroke="grey" stroke-width="2" d="M172.87,-215.876C186.472,-206.808 203.356,-195.552 218.046,-185.759"/>
<polygon fill="grey" stroke="grey" stroke-width="2" points="220.021,-188.649 226.4,-180.19 216.138,-182.825 220.021,-188.649"/>
</g>
<!-- 4&#45;&gt;0 -->
<g id="edge4" class="edge"><title>4&#45;&gt;0</title>
<path fill="none" stroke="grey" stroke-width="2" d="M199.52,-71.8761C185.4,-62.8083 167.873,-51.5523 152.624,-41.7592"/>
<polygon fill="grey" stroke="grey" stroke-width="2" points="154.257,-38.6485 143.951,-36.1898 150.474,-44.5385 154.257,-38.6485"/>
</g>
<!-- 5 -->
<g id="node6" class="node"><title>5</title>
<path fill="none" stroke="#56d8d8" stroke-width="2" d="M184.106,-324C184.106,-324 118.264,-324 118.264,-324 112.264,-324 106.264,-318 106.264,-312 106.264,-312 106.264,-300 106.264,-300 106.264,-294 112.264,-288 118.264,-288 118.264,-288 184.106,-288 184.106,-288 190.106,-288 196.106,-294 196.106,-300 196.106,-300 196.106,-312 196.106,-312 196.106,-318 190.106,-324 184.106,-324"/>
<text text-anchor="middle" x="151.185" y="-303" font-family="sans" font-size="10.00">samtools_merge</text>
</g>
<!-- 5&#45;&gt;3 -->
<g id="edge7" class="edge"><title>5&#45;&gt;3</title>
<path fill="none" stroke="grey" stroke-width="2" d="M150.196,-287.697C149.755,-279.983 149.225,-270.712 148.734,-262.112"/>
<polygon fill="grey" stroke="grey" stroke-width="2" points="152.227,-261.888 148.162,-252.104 145.238,-262.288 152.227,-261.888"/>
</g>
<!-- 6&#45;&gt;4 -->
<g id="edge10" class="edge"><title>6&#45;&gt;4</title>
<path fill="none" stroke="grey" stroke-width="2" d="M245.758,-143.697C242.829,-135.813 239.298,-126.304 236.045,-117.546"/>
<polygon fill="grey" stroke="grey" stroke-width="2" points="239.301,-116.26 232.538,-108.104 232.739,-118.697 239.301,-116.26"/>
</g>
<!-- 7 -->
<g id="node8" class="node"><title>7</title>
<path fill="none" stroke="#5682d8" stroke-width="2" d="M328.185,-396C328.185,-396 298.185,-396 298.185,-396 292.185,-396 286.185,-390 286.185,-384 286.185,-384 286.185,-372 286.185,-372 286.185,-366 292.185,-360 298.185,-360 298.185,-360 328.185,-360 328.185,-360 334.185,-360 340.185,-366 340.185,-372 340.185,-372 340.185,-384 340.185,-384 340.185,-390 334.185,-396 328.185,-396"/>
<text text-anchor="middle" x="313.185" y="-375" font-family="sans" font-size="10.00">fastqc</text>
</g>
<!-- 7&#45;&gt;4 -->
<g id="edge8" class="edge"><title>7&#45;&gt;4</title>
<path fill="none" stroke="grey" stroke-width="2" d="M317.201,-359.831C325.715,-319.281 341.726,-215.611 302.185,-144 293.363,-128.024 277.434,-115.799 262.429,-107.138"/>
<polygon fill="grey" stroke="grey" stroke-width="2" points="263.741,-103.869 253.278,-102.204 260.419,-110.03 263.741,-103.869"/>
</g>
<!-- 8 -->
<g id="node9" class="node"><title>8</title>
<path fill="none" stroke="#afd856" stroke-width="2" d="M190.045,-396C190.045,-396 144.324,-396 144.324,-396 138.324,-396 132.324,-390 132.324,-384 132.324,-384 132.324,-372 132.324,-372 132.324,-366 138.324,-360 144.324,-360 144.324,-360 190.045,-360 190.045,-360 196.045,-360 202.045,-366 202.045,-372 202.045,-372 202.045,-384 202.045,-384 202.045,-390 196.045,-396 190.045,-396"/>
<text text-anchor="middle" x="167.185" y="-375" font-family="sans" font-size="10.00">bwa_samse</text>
</g>
<!-- 8&#45;&gt;5 -->
<g id="edge11" class="edge"><title>8&#45;&gt;5</title>
<path fill="none" stroke="grey" stroke-width="2" d="M163.23,-359.697C161.466,-351.983 159.347,-342.712 157.382,-334.112"/>
<polygon fill="grey" stroke="grey" stroke-width="2" points="160.734,-333.073 155.094,-324.104 153.91,-334.633 160.734,-333.073"/>
</g>
<!-- 9 -->
<g id="node10" class="node"><title>9</title>
<path fill="none" stroke="#d85656" stroke-width="2" d="M237.55,-540C237.55,-540 206.819,-540 206.819,-540 200.819,-540 194.819,-534 194.819,-528 194.819,-528 194.819,-516 194.819,-516 194.819,-510 200.819,-504 206.819,-504 206.819,-504 237.55,-504 237.55,-504 243.55,-504 249.55,-510 249.55,-516 249.55,-516 249.55,-528 249.55,-528 249.55,-534 243.55,-540 237.55,-540"/>
<text text-anchor="middle" x="222.185" y="-519" font-family="sans" font-size="10.00">cutadapt</text>
</g>
<!-- 9&#45;&gt;7 -->
<g id="edge13" class="edge"><title>9&#45;&gt;7</title>
<path fill="none" stroke="grey" stroke-width="2" d="M234.047,-503.94C241.159,-493.612 250.319,-480.134 258.185,-468 271.814,-446.973 286.725,-422.764 297.58,-404.907"/>
<polygon fill="grey" stroke="grey" stroke-width="2" points="300.667,-406.565 302.858,-396.199 294.681,-402.937 300.667,-406.565"/>
</g>
<!-- 9&#45;&gt;8 -->
<g id="edge14" class="edge"><title>9&#45;&gt;8</title>
<path fill="none" stroke="grey" stroke-width="2" d="M208.02,-503.851C200.494,-493.93 191.687,-480.89 186.185,-468 177.771,-448.293 172.94,-424.488 170.256,-406.458"/>
<polygon fill="grey" stroke="grey" stroke-width="2" points="173.694,-405.764 168.882,-396.326 166.758,-406.705 173.694,-405.764"/>
</g>
<!-- 10 -->
<g id="node11" class="node"><title>10</title>
<path fill="none" stroke="#d8ac56" stroke-width="2" d="M237.185,-468C237.185,-468 207.185,-468 207.185,-468 201.185,-468 195.185,-462 195.185,-456 195.185,-456 195.185,-444 195.185,-444 195.185,-438 201.185,-432 207.185,-432 207.185,-432 237.185,-432 237.185,-432 243.185,-432 249.185,-438 249.185,-444 249.185,-444 249.185,-456 249.185,-456 249.185,-462 243.185,-468 237.185,-468"/>
<text text-anchor="middle" x="222.185" y="-447" font-family="sans" font-size="10.00">bwa_aln</text>
</g>
<!-- 9&#45;&gt;10 -->
<g id="edge17" class="edge"><title>9&#45;&gt;10</title>
<path fill="none" stroke="grey" stroke-width="2" d="M222.185,-503.697C222.185,-495.983 222.185,-486.712 222.185,-478.112"/>
<polygon fill="grey" stroke="grey" stroke-width="2" points="225.685,-478.104 222.185,-468.104 218.685,-478.104 225.685,-478.104"/>
</g>
<!-- 10&#45;&gt;8 -->
<g id="edge15" class="edge"><title>10&#45;&gt;8</title>
<path fill="none" stroke="grey" stroke-width="2" d="M208.589,-431.697C202.062,-423.389 194.117,-413.277 186.938,-404.141"/>
<polygon fill="grey" stroke="grey" stroke-width="2" points="189.554,-401.805 180.624,-396.104 184.05,-406.13 189.554,-401.805"/>
</g>
<!-- 11 -->
<g id="node12" class="node"><title>11</title>
<path fill="none" stroke="#d88556" stroke-width="2" d="M242.555,-612C242.555,-612 201.814,-612 201.814,-612 195.814,-612 189.814,-606 189.814,-600 189.814,-600 189.814,-588 189.814,-588 189.814,-582 195.814,-576 201.814,-576 201.814,-576 242.555,-576 242.555,-576 248.555,-576 254.555,-582 254.555,-588 254.555,-588 254.555,-600 254.555,-600 254.555,-606 248.555,-612 242.555,-612"/>
<text text-anchor="middle" x="222.185" y="-591" font-family="sans" font-size="10.00">copy_input</text>
</g>
<!-- 11&#45;&gt;9 -->
<g id="edge16" class="edge"><title>11&#45;&gt;9</title>
<path fill="none" stroke="grey" stroke-width="2" d="M222.185,-575.697C222.185,-567.983 222.185,-558.712 222.185,-550.112"/>
<polygon fill="grey" stroke="grey" stroke-width="2" points="225.685,-550.104 222.185,-540.104 218.685,-550.104 225.685,-550.104"/>
</g>
</g>
</svg>
